#!OML:ASF F:\VICON\USERDATA\INSTALL\rory3\rory3.ASF
:FULLY-SPECIFIED
:DEGREES
35
root -0.41260447747819873 18.48215323577349 10.53018491440987 -0.8430607349113253 0.37646866607908347 -5.6902437330154845
lfemur -28.166481805387765 5.9935686791977405 -13.484918549326053
ltibia 88.20339937011477
lfoot 0.9540764080593314 -6.624683941741408
ltoes -10.696155624517274
rfemur -8.531432364141054 5.379972102101371 33.89236513469436
rtibia 41.91593544407708
rfoot -10.639929975647107 -6.51439441601194
rtoes 11.76339911310278
lowerback 13.0474699998143 0.9203235452696177 4.177842169704635
upperback -0.04038289060915201 1.9544939777932595 2.7738402282056698
thorax -7.500475019709767 0.8670802035551606 -0.21468430364135282
lowerneck -18.043822726134778 -3.666660589287519 -1.7133835971496403
upperneck 18.004484573248003 -4.9388288142831165 1.83453426602731
head 8.692870299865243 -2.2562923228574396 0.3120024110174924
lclavicle -2.596412954091771e-15 4.500578474292244e-16
lhumerus -43.49893064876238 -8.89580054459665 92.87339368212042
lradius 68.93466001566257
lwrist 19.46398093643306
lhand -25.291036828502595 13.788505358495746
lfingers 7.125019999999999
lthumb 1.2304064227837832 43.75940071516248
rclavicle -2.596412954091771e-15 4.500578474292244e-16
rhumerus -38.7447137225167 -4.540021623003177 -88.7636499657838
rradius 63.55675999348429
rwrist -1.5835207263521323
rhand -16.570053822380146 30.027944767569394
rfingers 7.125019999999999
rthumb 9.650182015022477 0.3182965727914979
36
root -0.40828303190116033 18.398227993305472 10.749636121246423 -0.4226140507397791 -0.9432268391287761 -6.297102071954205
lfemur -33.49963060852152 6.226200488902567 -13.479058821135505
ltibia 79.46374654511254
lfoot -3.3597170012439137 -3.128268488690871
ltoes -10.648684424088625
rfemur -4.421960973725364 5.697578123905586 34.59587283281495
rtibia 39.323180332798266
rfoot -13.226593930003089 -6.716568931013905
rtoes 9.961751094264315
lowerback 13.010865229003782 1.4497928312449302 5.287819292727754
upperback -0.10979941567994328 2.820872263934131 2.517987381090152
thorax -7.474094995044205 1.2358236151082602 -1.3359882081784609
lowerneck -18.29270562411179 -3.76925816251528 -1.63057376079515
upperneck 17.792259424426806 -5.1007921724370835 1.823530029994759
head 8.663981513109805 -2.3202031471873945 0.27601010115535607
lclavicle -2.9209128795621813e-15 2.225434601933177e-16
lhumerus -46.428290264944835 -8.403455163803505 92.76774011336292
lradius 68.73914041725624
lwrist 20.24146696674458
lhand -25.487210827290443 12.956330278277456
lfingers 7.125019999999999
lthumb 1.0409530993910467 42.92812502668524
rclavicle -2.9209128795621813e-15 2.225434601933177e-16
rhumerus -36.029676570672656 -1.5318937568134214 -90.22754748155064
rradius 66.21718148078715
rwrist -3.3675463074556635
rhand -17.012837143679544 29.794507325437923
rfingers 7.125019999999999
rthumb 9.222849496334973 0.07121613510607228
37
root -0.3845822962738447 18.27040984069434 11.84998971792271 0.46102749892994366 -1.8731361752777214 -6.841747389406768
lfemur -36.28812776649457 4.748408927055857 -12.655901519290929
ltibia 66.17335746222591
lfoot -4.583400735350737 0.2581482435984932
ltoes -8.886717512563584
rfemur 0.17937002018163994 5.907260719355882 35.64844575262519
rtibia 36.798885171666036
rfoot -14.622620672674847 -7.017189915851817
rtoes 9.075733891383809
lowerback 12.903727296763428 1.9783723214995104 6.5585910039075035
upperback -0.2402493858895855 3.6845826778241952 2.4090544436010046
thorax -7.4008115014117735 1.604718749942538 -2.2977724346818063
lowerneck -18.62874925823176 -3.8424107198860087 -1.525194704843909
upperneck 17.46988514019079 -5.213846301172772 1.868623747199991
head 8.611941227980545 -2.3608156523438106 0.2502597111168122
lclavicle -2.4359239437476293e-15 5.625803920626112e-16
lhumerus -48.56852151791004 -7.335829151284532 92.7599140721652
lradius 68.64349457077307
lwrist 20.607876050033017
lhand -25.778378186736585 12.35254314073433
lfingers 7.125019999999999
lthumb 0.759749912153576 42.324703460007164
rclavicle -2.4359239437476293e-15 5.625803920626112e-16
rhumerus -33.20871248961424 1.57261451354099 -91.13071035036612
rradius 68.91110588179741
rwrist -4.958354730788068
rhand -17.49561790929088 30.306103071252025
rfingers 7.125019999999999
rthumb 8.756943812923202 0.6613501573354392
38
root -0.3538236158685337 18.101884811250027 13.20511024734832 1.4561046465457492 -2.716123366451832 -7.517235237046933
lfemur -37.35346630550344 1.3533939897945717 -11.181512039134214
ltibia 49.01635115649602
lfoot -3.9860844795777366 3.115392899815865
ltoes -8.443264833959347
rfemur 5.135904281885342 5.980996423592919 36.66318289675002
rtibia 33.13507257297688
rfoot -16.162530804071466 -6.91199173472796
rtoes 6.4716843395682195
lowerback 12.464979179548502 2.3936710790054745 7.616000408020947
upperback -0.41254781886685243 4.368222989344864 2.4132060137341798
thorax -7.255279249085415 1.896961971621645 -3.04431243486491
lowerneck -19.105920443425973 -3.87686093262053 -1.4447595835687461
upperneck 17.075045429782506 -5.26717153853711 1.8559866926847375
head 8.535270060998744 -2.3753954299485263 0.22525106429027522
lclavicle -2.4745345027022868e-15 5.355096350937939e-16
lhumerus -50.58634853274683 -6.2218939025298825 92.71072050979416
lradius 67.91554756202908
lwrist 20.4372854390015
lhand -26.062044780627186 11.831355489082409
lfingers 7.125019999999999
lthumb 0.48580465037395426 41.8020796960494
rclavicle -2.4745345027022868e-15 5.355096350937939e-16
rhumerus -30.709445672027087 3.921895725291253 -91.77049557926618
rradius 71.40570360861707
rwrist -6.202395551760153
rhand -17.90795348574349 31.202313195596837
rfingers 7.125019999999999
rthumb 8.358959952798491 1.5935843802031064
39
root -0.2875997146343533 17.91357137635763 14.540374479247738 2.446453752171169 -3.464107111795019 -7.793963544042731
lfemur -36.35955003052841 -2.43110500768771 -9.737550835881496
ltibia 32.73813177027377
lfoot -3.5058129117858083 5.520742815516673
ltoes -8.487557734964257
rfemur 10.58447500729547 6.3442302675122 37.24397408964168
rtibia 29.998772492155002
rfoot -17.732272355069373 -6.909391690876458
rtoes 2.3711431143513533
lowerback 11.912241693446004 2.8041432745938426 8.253170492361612
upperback -0.5883294904448518 4.9750887817370355 2.388494345122226
thorax -7.077123742438682 2.165906245664891 -3.4308765502349
lowerneck -19.505519665832214 -3.8905420101313393 -1.3691291093320825
upperneck 16.812051321912367 -5.299014481621441 1.966423180168022
head 8.503871463586918 -2.376821511030791 0.24102866201693574
lclavicle -2.012664009852641e-15 8.593376931959996e-16
lhumerus -51.93833110164967 -5.040746946699468 92.56213300962845
lradius 66.63407713118302
lwrist 19.904668386910785
lhand -26.180828537926637 11.982746422868615
lfingers 7.125019999999999
lthumb 0.37111099183365326 41.954091022255206
rclavicle -2.012664009852641e-15 8.593376931959996e-16
rhumerus -28.558871899906592 5.16635129234449 -91.97987897193882
rradius 73.07728633943546
rwrist -6.727769519108703
rhand -18.212268297024487 32.098609935729534
rfingers 7.125019999999999
rthumb 8.065320277480687 2.386860416499788
